Coordinates
version=1
nRows=8
nColumns=63
inDegrees=yes

Units are S.I. units (second, meters, Newtons, ...)
If the header above contains a line with 'inDegrees', this indicates whether rotational values are in degrees (yes) or radians (no).

endheader
time	pelvis_tilt	pelvis_list	pelvis_rotation	pelvis_tx	pelvis_ty	pelvis_tz	hip_flexion_r	hip_adduction_r	hip_rotation_r	knee_angle_r	knee_angle_r_beta	ankle_angle_r	subtalar_angle_r	mtp_angle_r	hip_flexion_l	hip_adduction_l	hip_rotation_l	knee_angle_l	knee_angle_l_beta	ankle_angle_l	subtalar_angle_l	mtp_angle_l	L5_S1_Flex_Ext	L5_S1_Lat_Bending	L5_S1_axial_rotation	L4_L5_Flex_Ext	L4_L5_Lat_Bending	L4_L5_axial_rotation	L3_L4_Flex_Ext	L3_L4_Lat_Bending	L3_L4_axial_rotation	L2_L3_Flex_Ext	L2_L3_Lat_Bending	L2_L3_axial_rotation	L1_L2_Flex_Ext	L1_L2_Lat_Bending	L1_L2_axial_rotation	L1_T12_Flex_Ext	L1_T12_Lat_Bending	L1_T12_axial_rotation	Abs_r3	Abs_r2	Abs_r1	Abs_t1	Abs_t2	neck_flexion	neck_bending	neck_rotation	arm_flex_r	arm_add_r	arm_rot_r	elbow_flex_r	pro_sup_r	wrist_flex_r	wrist_dev_r	arm_flex_l	arm_add_l	arm_rot_l	elbow_flex_l	pro_sup_l	wrist_flex_l	wrist_dev_l
1.067797	0.123707	5.106739	84.330831	0.333386	0.956927	0.568032	-6.449318	-0.859121	7.065526	0.275361	0.004806	18.619972	-10.953136	0.000000	-5.642424	-1.558323	13.308584	0.240077	0.004190	24.382210	2.490461	0.000000	-0.298105	-0.212420	1.320232	-0.553611	-0.282519	1.402747	-0.489756	-0.516478	1.402747	-0.340704	-0.516478	1.155203	-0.276820	-0.433167	1.072689	-0.170337	-0.329039	0.990174	-2.129333	-2.402937	7.342735	0.000000	0.000000	26.024899	-13.062677	-0.464229	-14.666212	-5.709547	137.177498	15.561600	40.998717	-28.495605	0.181528	-31.994557	-12.078000	10.416357	49.093944	53.384048	-27.918724	10.239515
1.084746	-0.361724	4.937801	84.679290	0.334038	0.957705	0.567145	-6.355496	-1.266972	6.862235	0.263630	0.004601	18.584025	-11.014336	0.000000	-5.420730	-1.137569	13.232417	0.255729	0.004463	23.540008	2.937494	0.000000	-0.275727	-0.310518	1.313183	-0.512053	-0.412988	1.395257	-0.452992	-0.754992	1.395257	-0.315128	-0.754992	1.149035	-0.256040	-0.633207	1.066961	-0.157550	-0.480992	0.984887	-1.969491	-3.512637	7.303531	0.000000	0.000000	25.855236	-12.526534	-1.341368	-14.463413	-3.719845	150.512847	13.109625	43.202591	-31.525005	4.206478	-32.230151	-12.480836	12.290001	49.959927	51.301941	-30.151246	10.858854
1.101695	-0.836524	4.747487	85.143870	0.334671	0.958389	0.566466	-6.232890	-1.640550	6.530764	0.253691	0.004428	18.598166	-11.013652	0.000000	-5.155854	-0.752250	13.367702	0.273539	0.004774	22.670459	3.300484	0.000000	-0.256182	-0.411758	1.282486	-0.475756	-0.547638	1.362641	-0.420882	-1.001148	1.362641	-0.292791	-1.001148	1.122175	-0.237891	-0.839657	1.042020	-0.146382	-0.637813	0.961864	-1.829884	-4.657889	7.132800	0.000000	0.000000	25.724861	-11.895531	-2.231041	-14.332383	-1.796404	162.869483	10.672242	45.828503	-34.050427	8.422651	-32.071395	-12.952975	15.564073	50.149989	47.808533	-32.018795	11.060684
1.118644	-1.295129	4.505615	85.673237	0.335225	0.959003	0.565943	-6.044842	-1.984136	6.118091	0.244758	0.004272	18.594425	-11.040105	0.000000	-4.824350	-0.393422	13.467103	0.295541	0.005158	21.750664	3.724648	0.000000	-0.233688	-0.510047	1.242421	-0.433983	-0.678363	1.320073	-0.383927	-1.240129	1.320073	-0.267082	-1.240129	1.087119	-0.217003	-1.040088	1.009467	-0.133530	-0.790063	0.931816	-1.669213	-5.769756	6.909974	0.000000	0.000000	25.649543	-11.321882	-3.009681	-14.284528	0.017747	174.245510	8.269839	47.500948	-35.821323	12.509776	-31.714892	-13.564125	18.345686	49.931458	44.651139	-33.723028	10.837043
1.135593	-1.690679	4.218074	86.220624	0.335716	0.959534	0.565540	-5.796283	-2.257274	5.653486	0.237148	0.004139	18.647033	-10.967433	0.000000	-4.445560	-0.105792	13.634695	0.317632	0.005544	20.856185	4.095102	0.000000	-0.209003	-0.598964	1.187403	-0.388140	-0.796622	1.261616	-0.343371	-1.456322	1.261616	-0.238870	-1.456322	1.038978	-0.194080	-1.221408	0.964765	-0.119424	-0.927796	0.890553	-1.492888	-6.775603	6.603982	0.000000	0.000000	25.660599	-10.737754	-3.607387	-14.253646	1.654444	184.814893	5.950100	47.896200	-36.761153	16.208067	-31.481360	-14.164700	19.634981	49.601910	43.181554	-35.119724	10.590471
1.152542	-1.994369	3.897471	86.744072	0.336110	0.959946	0.565265	-5.497530	-2.438520	5.148949	0.230675	0.004026	18.782458	-10.764653	0.000000	-4.039787	0.090843	13.894007	0.338312	0.005905	20.020570	4.312563	0.000000	-0.183690	-0.672855	1.118061	-0.341132	-0.894896	1.187940	-0.301785	-1.635978	1.187940	-0.209940	-1.635978	0.978303	-0.170575	-1.372085	0.908425	-0.104961	-1.042252	0.838546	-1.312083	-7.611465	6.218321	0.000000	0.000000	25.765350	-10.150281	-3.973263	-14.234564	3.059935	194.369831	3.786405	47.815968	-36.868371	19.605937	-31.351014	-14.650508	20.187726	49.340117	42.652641	-36.032153	10.441932
1.169492	-2.163966	3.572939	87.201032	0.336370	0.960223	0.565128	-5.179563	-2.494531	4.590587	0.225304	0.003932	19.027500	-10.316987	0.000000	-3.644880	0.161303	14.271872	0.356219	0.006217	19.340007	4.341325	0.000000	-0.162127	-0.725322	1.045352	-0.301087	-0.964678	1.110687	-0.266359	-1.763548	1.110687	-0.185295	-1.763548	0.914683	-0.150551	-1.479077	0.849349	-0.092640	-1.123524	0.784014	-1.158059	-8.204989	5.813936	0.000000	0.000000	25.961230	-9.556757	-4.155711	-14.277914	4.174184	202.150687	1.899346	46.715505	-36.284298	21.953713	-31.273909	-15.001757	20.402045	49.211060	42.466312	-36.536656	10.593610
1.186441	-2.225909	3.266267	87.588054	0.336506	0.960320	0.565166	-4.861396	-2.454524	4.131350	0.220224	0.003844	19.362434	-9.849080	0.000000	-3.275790	0.138075	14.739586	0.370641	0.006469	18.853456	4.190649	0.000000	-0.145733	-0.760094	0.957412	-0.270640	-1.010925	1.017250	-0.239424	-1.848093	1.017250	-0.166558	-1.848093	0.837736	-0.135327	-1.549984	0.777897	-0.083272	-1.177386	0.718059	-1.040954	-8.598336	5.324840	0.000000	0.000000	26.217115	-8.909468	-4.160799	-14.247039	5.014940	208.712889	0.312305	45.090209	-35.058861	23.296121	-31.282337	-15.187160	20.238462	49.277449	42.524254	-36.812248	11.291757
